<svg width="269" height="268" viewBox="0 0 269 268" fill="none" xmlns="http://www.w3.org/2000/svg">
<path d="M36.9629 53.9844V131.545H23.3398L21.5234 122.281C21.1602 125.248 19.9492 127.549 17.8906 129.184C15.832 130.758 13.501 131.545 10.8975 131.545C8.05176 131.545 5.56934 130.637 3.4502 128.82C1.33105 126.943 0.271484 124.31 0.271484 120.919V16.0215C0.271484 11.6621 1.78516 7.93848 4.8125 4.85059C7.90039 1.7627 11.5938 0.21875 15.8926 0.21875H21.1602C25.5195 0.21875 29.2432 1.79297 32.3311 4.94141C35.4189 8.0293 36.9629 11.7227 36.9629 16.0215V51.8047H19.7979V17.3838H17.4365V114.289H19.7979V68.5156H18.3447V53.9844H36.9629ZM66.4795 115.742V131H49.2236V115.742C46.3779 114.652 44.0469 112.775 42.2305 110.111C40.4141 107.447 39.5059 104.48 39.5059 101.211V0.763672H56.6709V99.7578H59.0322V0.763672H76.1973V101.211C76.1973 104.42 75.2891 107.387 73.4727 110.111C71.6562 112.775 69.3252 114.652 66.4795 115.742ZM99.4473 48.4443L103.353 0.763672H120.245V131H102.989V112.2L108.166 49.3525L101.627 100.848H97.3584L90.8193 49.3525L95.9053 112.2V131H78.7402V0.763672H95.7236L99.4473 48.4443ZM21.1602 267.545H15.8926C11.5332 267.545 7.83984 266.001 4.8125 262.913C1.78516 259.825 0.271484 256.102 0.271484 251.742V189.803H17.4365V250.289H19.7979V151.295H12.1689V136.764H36.9629V251.742C36.9629 256.102 35.4189 259.825 32.3311 262.913C29.2432 266.001 25.5195 267.545 21.1602 267.545ZM60.3945 267.545H55.127C50.7676 267.545 47.0742 266.001 44.0469 262.913C41.0195 259.825 39.5059 256.102 39.5059 251.742V152.021C39.5059 147.662 41.0195 143.938 44.0469 140.851C47.1348 137.763 50.8281 136.219 55.127 136.219H60.3945C64.7539 136.219 68.4775 137.793 71.5654 140.941C74.6533 144.029 76.1973 147.723 76.1973 152.021V251.742C76.1973 256.102 74.6533 259.825 71.5654 262.913C68.4775 266.001 64.7539 267.545 60.3945 267.545ZM59.0322 250.289V153.384H56.6709V250.289H59.0322ZM99.6289 267.545H94.3613C90.002 267.545 86.3086 266.001 83.2812 262.913C80.2539 259.825 78.7402 256.102 78.7402 251.742V136.764H95.9053V250.289H98.2666V136.764H115.432V251.742C115.432 256.102 113.888 259.825 110.8 262.913C107.712 266.001 103.988 267.545 99.6289 267.545ZM135.14 267H117.975V136.764H138.863C143.223 136.764 146.946 138.338 150.034 141.486C153.122 144.574 154.666 148.268 154.666 152.566V180.176C154.666 182.295 153.97 184.081 152.577 185.534C151.245 186.927 149.58 187.684 147.582 187.805C149.701 188.047 151.396 188.895 152.668 190.348C154 191.74 154.666 193.436 154.666 195.434V267H137.319V194.616H135.14V267ZM137.319 180.902V153.929H135.14V180.902H137.319ZM174.374 233.669V267H157.209V136.764H171.195L182.185 201.882L178.643 170.095V136.764H195.717V267H181.821L170.832 201.882L174.374 233.669ZM215.425 252.65V267H198.26V246.021L204.98 136.764H228.23L234.951 246.021V267H217.786V252.65H215.425ZM217.786 239.118L216.515 151.295L215.425 239.118H217.786ZM268.373 249.744V267H237.494V136.764H254.659V249.744H268.373Z" fill="white"/>
</svg>
